<svg xmlns="http://www.w3.org/2000/svg" xmlns:xlink="http://www.w3.org/1999/xlink" version="1.1" x="0px" y="0px" viewBox="0 0 100 125" style="enable-background:new 0 0 100 100;" xml:space="preserve"><g><path d="M64.3,66.5c13.3,0,24-10.8,24-24c0-13.3-10.8-24-24-24c-13.3,0-24,10.8-24,24c0,1.7,0.2,3.5,0.6,5.1L32,49.7   c-0.4,0.1-0.7,0.5-0.8,0.9c0,0.4,0.2,0.9,0.6,1l9,4v6.6c0,0.4,0.2,0.8,0.6,0.9c0.1,0.1,0.3,0.1,0.4,0.1c0.2,0,0.5-0.1,0.6-0.2   l3.5-2.8l2.9,2.7c0.2,0.2,0.4,0.3,0.7,0.3c0,0,0,0,0.1,0c0.3,0,0.5-0.1,0.7-0.4l0.5-0.6C54.8,65.1,59.4,66.5,64.3,66.5z M42.3,42.5   c0-12.1,9.9-22,22-22s22,9.9,22,22s-9.9,22-22,22c-4.4,0-8.6-1.3-12.2-3.7l14.7-17.4c0-0.1,0.1-0.1,0.1-0.2l0.1-0.1   c0-0.1,0.1-0.2,0.1-0.3l0,0c0-0.1,0-0.2-0.1-0.4l0,0c0,0,0-0.1-0.1-0.1c0-0.1-0.1-0.1-0.1-0.2l0,0L66.7,42l-0.1-0.1   c-0.1,0-0.1,0-0.2-0.1c-0.1,0-0.1,0-0.2-0.1c-0.1,0-0.1,0-0.2,0s-0.1,0-0.2,0c0,0,0,0-0.1,0l-22.9,5.5   C42.5,45.6,42.3,44.1,42.3,42.5z M57.8,45.7l-16.1,8.2L35.4,51L57.8,45.7z M42.8,60.1v-2.8l1.6,1.5L42.8,60.1z M49.4,60.8l-2.7-2.6   l0,0l-3-2.8l-0.1-0.1L62,45.9L49.4,60.8z"/><path d="M77.4,14.3c-0.5-0.2-1.1,0-1.4,0.5c-0.2,0.5,0,1.1,0.5,1.4c14.5,6.7,20.8,24,14.1,38.5c-6.7,14.5-24,20.8-38.5,14.1   c-0.5-0.2-1.1,0-1.4,0.5c-0.2,0.5,0,1.1,0.5,1.4c3.9,1.8,8,2.7,12.1,2.9v6.1h-7.6c-0.6,0-1,0.5-1,1c0,0.6,0.5,1,1,1H72   c0.6,0,1-0.5,1-1c0-0.6-0.5-1-1-1h-6.6v-6.1c11.3-0.4,22.1-7,27.2-17.9C99.7,40,92.9,21.5,77.4,14.3z"/><path d="M35.7,58.2l-0.9,0.5c-0.3,0.2-0.4,0.6-0.2,0.9c0.1,0.2,0.4,0.3,0.6,0.3c0.1,0,0.2,0,0.3-0.1l0.9-0.5   c0.3-0.2,0.4-0.6,0.2-0.9C36.4,58.1,36,58,35.7,58.2z"/><path d="M17.9,51.8c-0.1-0.4-0.4-0.6-0.8-0.5c-0.7,0.2-1.5,0.4-2.1,0.8c-0.3,0.2-0.4,0.6-0.2,0.9c0.1,0.2,0.4,0.3,0.6,0.3   c0.1,0,0.2,0,0.3-0.1c0.5-0.3,1.1-0.5,1.7-0.6C17.7,52.6,17.9,52.2,17.9,51.8z"/><path d="M14.7,62.5c-0.4-0.4-0.8-0.8-1.1-1.3c-0.2-0.3-0.6-0.4-0.9-0.2c-0.3,0.2-0.4,0.6-0.2,0.9c0.4,0.6,0.8,1.1,1.4,1.6l0.1,0.1   c0.1,0.1,0.3,0.1,0.4,0.1c0.2,0,0.4-0.1,0.5-0.3c0.2-0.3,0.2-0.7-0.1-1L14.7,62.5z"/><path d="M12.1,58.4L12.1,58.4c0.4,0,0.7-0.3,0.7-0.6c0-0.2,0-0.4,0.1-0.6c0.1-0.4,0.2-0.8,0.3-1.1s0-0.7-0.4-0.9   c-0.3-0.1-0.7,0-0.9,0.4c-0.2,0.5-0.3,0.9-0.4,1.4c0,0.3-0.1,0.5-0.1,0.8C11.4,58,11.7,58.4,12.1,58.4z"/><path d="M12.7,67.6c-0.1,0-0.2,0-0.4,0c-0.5,0-1.1,0-1.6-0.1c-0.4,0-0.7,0.2-0.7,0.6s0.2,0.7,0.6,0.7c0.6,0.1,1.2,0.1,1.7,0.1   c0.1,0,0.3,0,0.4,0c0.4,0,0.7-0.3,0.7-0.7C13.3,67.9,13,67.6,12.7,67.6z"/><path d="M18.3,66.3c-0.6,0.3-1.2,0.5-1.8,0.7c-0.4,0.1-0.6,0.5-0.5,0.8s0.4,0.5,0.7,0.5c0.1,0,0.1,0,0.2,0c0.7-0.2,1.4-0.5,2-0.8   c0.3-0.2,0.5-0.6,0.3-0.9C19.1,66.3,18.7,66.1,18.3,66.3z"/><path d="M24.6,59.9h0.1c0.3,0,0.6-0.2,0.7-0.6c0.1-0.4,0.1-0.8,0.1-1.1c0-0.4,0-0.8-0.1-1.1c-0.1-0.4-0.4-0.6-0.8-0.6   c-0.4,0.1-0.6,0.4-0.6,0.8c0,0.3,0.1,0.6,0.1,0.9c0,0.3,0,0.6-0.1,0.9C24,59.5,24.3,59.9,24.6,59.9z"/><path d="M25.8,63.5c-0.7,0.3-1.3,0.5-1.9,0.6c-0.4,0.1-0.6,0.5-0.5,0.8s0.4,0.5,0.7,0.5c0.1,0,0.1,0,0.2,0c0.6-0.2,1.3-0.4,2-0.7   c0.4-0.1,0.5-0.5,0.4-0.9C26.6,63.5,26.2,63.3,25.8,63.5z"/><path d="M31.3,60.8c-0.6,0.3-1.2,0.7-1.8,1c-0.3,0.2-0.5,0.6-0.3,0.9c0.1,0.2,0.4,0.4,0.6,0.4c0.1,0,0.2,0,0.3-0.1   c0.6-0.3,1.2-0.7,1.8-1c0.3-0.2,0.4-0.6,0.3-0.9C32,60.7,31.6,60.6,31.3,60.8z"/><path d="M20.1,64.6c-0.7,0-1.3-0.1-1.9-0.3c-0.4-0.1-0.7,0.1-0.8,0.5c-0.1,0.4,0.1,0.7,0.5,0.8c0.7,0.2,1.4,0.3,2.2,0.3l0,0   c0.4,0,0.7-0.3,0.7-0.7C20.8,64.9,20.5,64.6,20.1,64.6z"/><path d="M22.9,54.3c0.2,0,0.4-0.1,0.5-0.2c0.3-0.3,0.3-0.7,0-1c-0.5-0.5-1.2-1-1.9-1.3c-0.3-0.2-0.7,0-0.9,0.3   c-0.2,0.3,0,0.7,0.3,0.9c0.6,0.3,1.1,0.6,1.5,1C22.5,54.2,22.7,54.3,22.9,54.3z"/><path d="M23.7,62.5c-0.3-0.2-0.7-0.1-0.9,0.2c-0.3,0.5-0.8,1-1.2,1.5c-0.3,0.3-0.3,0.7,0,1c0.1,0.1,0.3,0.2,0.5,0.2   s0.3-0.1,0.5-0.2c0.5-0.5,1-1.1,1.4-1.7C24.1,63.1,24,62.7,23.7,62.5z"/><path d="M6.9,66.6c-0.3-0.1-0.6-0.3-0.9-0.4c-0.3-0.2-0.7,0-0.9,0.3c-0.2,0.3,0,0.7,0.3,0.9c0.3,0.2,0.6,0.3,1,0.4   c0.1,0,0.2,0,0.3,0c0.3,0,0.5-0.2,0.6-0.4C7.4,67.1,7.2,66.7,6.9,66.6z"/></g></svg>